{"title":"Red Eagle [2010] DVDRip XviD DAYN-D3MT","uid":6310997,"size":1150112280,"categoryP":"video","categoryS":"movies","magnet":"?xt=urn:btih:6e2a51015e5196b73d6c74c4e4dad64f42ca893d&amp;dn=Red+Eagle+%5B2010%5D+DVDRip+XviD+DAYN-D3MT&amp;tr=udp%3A%2F%2Ftracker.openbittorrent.com%3A80&amp;tr=udp%3A%2F%2Fopen.demonii.com%3A1337&amp;tr=udp%3A%2F%2Ftracker.coppersurfer.tk%3A6969&amp;tr=udp%3A%2F%2Fexodus.desync.com%3A6969","seeders":0,"leechers":0,"uploader":"arihantkatariya","files":10,"time":1302532786,"description":"[CODE]Format : AVI\nFormat/Info : Audio Video Interleave\nFormat profile : OpenDML\nFile size : 1.03 GiB\nDuration : 2h 9mn\nOverall bit rate : 1 140 Kbps\nWriting application : Lavf52.39.1\n\nVideo\nID : 0\nFormat : MPEG-4 Visual\nFormat settings, BVOP : 1\nFormat settings, QPel : No\nFormat settings, GMC : No warppoints\nFormat settings, Matrix : Default (H.263)\nMuxing mode : Packed bitstream\nCodec ID : DX50\nCodec ID/Hint : DivX 5\nDuration : 2h 9mn\nBit rate : 65.7 Kbps\nWidth : 640 pixels\nHeight : 272 pixels\nDisplay aspect ratio : 2.35:1\nFrame rate : 23.976 fps\nColor space : YUV\nChroma subsampling : 4:2:0\nBit depth : 8 bits\nScan type : Progressive\nCompression mode : Lossy\nBits/(Pixel*Frame) : 0.016\nStream size : 60.8 MiB (6%)\nWriting library : DivX 6.8.5 (UTC 2009-08-20)\n\nAudio\nID : 1\nFormat : MPEG Audio\nFormat version : Version 1\nFormat profile : Layer 2\nCodec ID : 50\nDuration : 2h 9mn\nBit rate mode : Constant\nBit rate : 64.0 Kbps\nChannel(s) : 2 channels\nSampling rate : 48.0 KHz\nCompression mode : Lossy\nStream size : 1.16 MiB (0%)\nAlignment : Aligned on interleaves\nInterleave, duration : 78 ms (1.87 video frames)[/CODE]","torrent":{"xt":"urn:btih:6e2a51015e5196b73d6c74c4e4dad64f42ca893d","amp;dn":"Red+Eagle+%5B2010%5D+DVDRip+XviD+DAYN-D3MT","amp;tr":["udp%3A%2F%2Ftracker.openbittorrent.com%3A80","udp%3A%2F%2Fopen.demonii.com%3A1337","udp%3A%2F%2Ftracker.coppersurfer.tk%3A6969","udp%3A%2F%2Fexodus.desync.com%3A6969"],"infoHash":"6e2a51015e5196b73d6c74c4e4dad64f42ca893d","infoHashBuffer":{"type":"Buffer","data":[110,42,81,1,94,81,150,183,61,108,116,196,228,218,214,79,66,202,137,61]},"announce":[],"urlList":[]}}